Coordinates
version=1
nRows=9
nColumns=24
inDegrees=yes

Units are S.I. units (second, meters, Newtons, ...)
Angles are in degrees.

endheader
time	pelvis_tilt	pelvis_list	pelvis_rotation	pelvis_tx	pelvis_ty	pelvis_tz	hip_flexion_r	hip_adduction_r	hip_rotation_r	knee_angle_r	ankle_angle_r	subtalar_angle_r	mtp_angle_r	hip_flexion_l	hip_adduction_l	hip_rotation_l	knee_angle_l	ankle_angle_l	subtalar_angle_l	mtp_angle_l	lumbar_extension	lumbar_bending	lumbar_rotation
      3.82000000	     -3.75713023	      3.00159574	      5.17752234	     -0.24954147	     -0.03488362	     -0.16031777	     34.66710859	     -2.55777097	     -1.02260113	    -16.80674199	      2.29582549	      9.26317606	      9.95258077	    -10.02239134	      5.08454299	     -7.40824582	    -26.51573752	     10.78262307	     21.12761945	     -2.86125838	      2.18187726	     -5.18304860	    -11.43654653
      3.82500000	     -3.86363573	      2.66589337	      5.03826820	     -0.24129946	     -0.03554961	     -0.15925404	     34.67158811	     -1.99260225	     -0.92666512	    -17.50696842	      1.61632611	      8.96582819	      9.94295655	     -9.71302837	      4.44100657	     -7.90123929	    -27.66858851	      9.08932454	     21.16234651	      0.07536897	      2.51312742	     -4.83545622	    -11.22761499
      3.83000000	     -3.91815631	      2.23652078	      4.99468395	     -0.23307644	     -0.03598445	     -0.15834905	     34.55137149	     -1.40913745	     -0.99715585	    -18.03730986	      0.64770103	      8.63422806	     10.46875544	     -9.40296024	      3.66926560	     -8.27853720	    -28.83003835	      7.09474311	     21.09739729	      3.51653954	      2.77680487	     -4.38621172	    -11.19115361
      3.83500000	     -4.02302806	      1.78749981	      4.90668591	     -0.22489599	     -0.03639760	     -0.15735606	     34.50441407	     -0.76219325	     -0.90606072	    -18.59881005	     -0.31524628	      8.27037760	     10.48532170	     -8.98326100	      2.86942346	     -8.68757054	    -30.05143452	      4.95605450	     20.96474775	      6.76995387	      3.08307394	     -3.91498130	    -11.07915882
      3.84000000	     -4.12539041	      1.28217597	      4.80848300	     -0.21670984	     -0.03672253	     -0.15632341	     34.44702557	     -0.04653216	     -0.78408811	    -19.12973917	     -1.32726971	      7.89455314	     10.39818702	     -8.51369912	      1.97485192	     -9.14978242	    -31.32099080	      2.65338456	     20.85289364	      9.93827882	      3.38970858	     -3.38566486	    -10.96295921
      3.84500000	     -4.24453873	      0.75831364	      4.70367135	     -0.20850253	     -0.03697661	     -0.15528491	     34.41425782	      0.69259592	     -0.65401179	    -19.68220060	     -2.26543623	      7.59646922	     10.12605527	     -7.99346691	      1.04758663	     -9.59508972	    -32.58273055	      0.08441074	     20.63264197	     13.14975049	      3.71778200	     -2.83456655	    -10.82035878
      3.85000000	     -4.36471678	      0.21405747	      4.58523269	     -0.20035274	     -0.03721794	     -0.15422568	     34.39928041	      1.46926515	     -0.44808341	    -20.27437200	     -3.13663178	      7.31950225	      9.71349658	     -7.40994968	      0.07919727	    -10.05228716	    -33.92544701	     -2.56688786	     20.35001612	     15.90976255	      4.02971767	     -2.25993909	    -10.65594736
      3.85500000	     -4.50827287	     -0.33983814	      4.46041954	     -0.19221733	     -0.03746820	     -0.15316203	     34.42127848	      2.26136419	     -0.21279770	    -20.90840253	     -3.89922879	      7.09187239	      9.23034683	     -6.75166253	     -0.91337859	    -10.50151588	    -35.31941529	     -5.32951136	     19.97124424	     18.23139942	      4.36109994	     -1.67477448	    -10.48222958
      3.86000000	     -4.68718889	     -0.90839235	      4.34565020	     -0.18408998	     -0.03775161	     -0.15211148	     34.47944604	      3.06475816	      0.02979713	    -21.55809579	     -4.57586448	      6.83031748	      8.72987328	     -5.99409246	     -1.92795224	    -10.90108033	    -36.79615972	     -8.12290780	     19.47765422	     19.82120652	      4.73088257	     -1.07877618	    -10.31991030
